<?xml version="1.0" standalone="no"?>
<!DOCTYPE svg PUBLIC "-//W3C//DTD SVG 20010904//EN"
 "http://www.w3.org/TR/2001/REC-SVG-20010904/DTD/svg10.dtd">
<svg version="1.0" xmlns="http://www.w3.org/2000/svg"
 width="662.000000pt" height="662.000000pt" viewBox="0 0 662.000000 662.000000"
 preserveAspectRatio="xMidYMid meet">

<g transform="translate(0.000000,662.000000) scale(0.100000,-0.100000)"
fill="#FFFFFF" stroke="none">
<path d="M2950 6594 c-1290 -140 -2381 -1030 -2784 -2269 -107 -330 -156 -650
-156 -1015 0 -366 48 -677 157 -1015 65 -202 191 -495 213 -495 9 0 446 430
1915 1881 l110 109 -257 257 c-141 142 -263 272 -272 290 -40 81 -5 190 76
232 36 18 272 54 1457 221 777 110 1431 200 1453 200 50 0 101 -24 133 -62 56
-66 66 20 -180 -1544 -123 -789 -230 -1445 -236 -1457 -17 -33 -51 -67 -81
-83 -36 -19 -122 -18 -161 2 -18 9 -144 131 -281 271 -137 140 -254 253 -261
251 -18 -5 -2005 -1970 -2005 -1984 0 -14 209 -110 374 -171 349 -130 667
-190 1056 -200 569 -15 1063 94 1563 343 342 171 611 368 888 650 506 518 811
1145 915 1884 26 178 26 662 0 840 -113 801 -464 1477 -1045 2013 -529 489
-1191 782 -1930 857 -141 14 -509 11 -661 -6z"/>
</g>
</svg>
